HIERARCHY
ROOT Hips
{
 OFFSET 0.000000 0.000000 0.000000
 CHANNELS 6 Xposition Yposition Zposition Yrotation Xrotation Zrotation
 JOINT Chest
 {
  OFFSET 0.000000 11.395451 -0.039534
  CHANNELS 3 Yrotation Xrotation Zrotation
  JOINT Chest2
  {
   OFFSET 0.000000 9.398669 0.071813
   CHANNELS 3 Yrotation Xrotation Zrotation
   JOINT Chest3
   {
    OFFSET 0.000000 8.489801 0.000000
    CHANNELS 3 Yrotation Xrotation Zrotation
    JOINT Chest4
    {
     OFFSET 0.000000 8.489801 0.000000
     CHANNELS 3 Yrotation Xrotation Zrotation
     JOINT Neck
     {
      OFFSET 0.000000 12.404889 0.000000
      CHANNELS 3 Yrotation Xrotation Zrotation
      JOINT Head
      {
       OFFSET 0.000000 8.903270 0.092239
       CHANNELS 3 Yrotation Xrotation Zrotation
       End Site
       {
        OFFSET 0.000000 17.592497 0.007158
       }
      }
     }
     JOINT RightCollar
     {
      OFFSET -3.196775 6.966722 0.000000
      CHANNELS 3 Yrotation Xrotation Zrotation
      JOINT RightShoulder
      {
       OFFSET -15.955896 0.000000 0.000000
       CHANNELS 3 Yrotation Xrotation Zrotation
       JOINT RightElbow
       {
        OFFSET -24.792472 0.000000 0.000000
        CHANNELS 3 Yrotation Xrotation Zrotation
        JOINT RightWrist
        {
         OFFSET -20.900115 0.000000 0.025002
         CHANNELS 3 Yrotation Xrotation Zrotation
         End Site
         {
          OFFSET -16.056692 0.000000 0.000000
         }
        }
       }
      }
     }
     JOINT LeftCollar
     {
      OFFSET 3.196775 6.966722 0.000000
      CHANNELS 3 Yrotation Xrotation Zrotation
      JOINT LeftShoulder
      {
       OFFSET 15.955896 0.000000 0.000000
       CHANNELS 3 Yrotation Xrotation Zrotation
       JOINT LeftElbow
       {
        OFFSET 24.792472 0.000000 0.000000
        CHANNELS 3 Yrotation Xrotation Zrotation
        JOINT LeftWrist
        {
         OFFSET 20.900115 0.000000 0.025002
         CHANNELS 3 Yrotation Xrotation Zrotation
         End Site
         {
          OFFSET 16.056692 0.000000 0.000000
         }
        }
       }
      }
     }
    }
   }
  }
 }
 JOINT RightHip
 {
  OFFSET -9.568995 0.193718 0.019767
  CHANNELS 3 Yrotation Xrotation Zrotation
  JOINT RightKnee
  {
   OFFSET 0.000000 -56.649296 0.015402
   CHANNELS 3 Yrotation Xrotation Zrotation
   JOINT RightAnkle
   {
    OFFSET 0.000000 -41.365147 0.021264
    CHANNELS 3 Yrotation Xrotation Zrotation
    JOINT RightToe
    {
     OFFSET 0.000000 -7.465940 17.672538
     CHANNELS 3 Yrotation Xrotation Zrotation
     End Site
     {
      OFFSET 0.000000 -1.736315 7.837145
     }
    }
   }
  }
 }
 JOINT LeftHip
 {
  OFFSET 9.568995 0.193718 0.019767
  CHANNELS 3 Yrotation Xrotation Zrotation
  JOINT LeftKnee
  {
   OFFSET 0.000000 -56.649296 0.015402
   CHANNELS 3 Yrotation Xrotation Zrotation
   JOINT LeftAnkle
   {
    OFFSET 0.000000 -41.365147 0.021264
    CHANNELS 3 Yrotation Xrotation Zrotation
    JOINT LeftToe
    {
     OFFSET 0.000000 -7.465940 17.672538
     CHANNELS 3 Yrotation Xrotation Zrotation
     End Site
     {
      OFFSET 0.000000 -1.736315 7.837145
     }
    }
   }
  }
 }
}
MOTION
Frames: 7
Frame Time: 0.016667
0.000000 105.086133 0.000000 0.000000 -5.826342 0.000000 0.000000 11.116423 0.000000 0.000000 -5.290081 0.000000 0.000000 0.000000 0.000000 0.000000 0.000000 0.000000 0.000000 12.665069 0.000000 0.000000 0.575450 0.000000 0.000000 0.000000 0.000000 0.000000 0.000000 0.000000 2.337306 0.000000 0.000000 -2.337306 0.000000 0.000000 0.000000 0.000000 0.000000 0.000000 0.000000 0.000000 -2.337306 0.000000 0.000000 2.337306 0.000000 0.000000 0.000000 8.578828 0.000000 0.000000 1.905768 0.000000 0.000000 -4.658254 0.000000 0.000000 0.000000 0.000000 0.000000 8.578828 0.000000 0.000000 1.905768 0.000000 0.000000 -4.658254 0.000000 0.000000 0.000000 0.000000
43.782177 106.402239 348.116297 -140.965383 -16.460415 0.416322 -2.867915 7.821298 0.165383 -1.274363 3.475067 0.121767 -1.274363 3.475067 0.121766 -0.956172 2.606060 0.098551 3.327004 18.093975 -1.637071 6.664959 -2.416581 -4.115859 10.629513 4.451953 10.903187 3.559925 -12.633661 76.502182 -9.880570 20.445438 -6.344985 1.171562 -0.149085 0.481647 -1.018222 8.888405 -11.674245 -5.320474 -16.365901 -79.293565 8.621088 13.493279 11.437289 2.319079 3.690952 -3.319700 7.700434 21.952833 1.249109 -0.458949 1.034654 -0.364402 1.964144 -7.423226 0.414122 0.000000 0.000000 0.000000 3.054518 15.478543 0.230325 -0.151963 9.587062 0.140146 5.659005 -9.052255 -1.947646 0.000000 -0.000000 0.000000
43.890448 106.418606 348.235673 -140.959395 -16.396511 0.358773 -2.862604 7.756142 0.183332 -1.272336 3.446001 0.129234 -1.272336 3.446001 0.129234 -0.954693 2.584245 0.104078 3.320590 18.103364 -1.623788 6.648264 -2.400524 -4.088746 10.532483 4.544697 10.894100 3.604571 -12.650314 76.540220 -9.896675 20.462563 -6.383918 1.156751 -0.151285 0.512029 -1.099889 8.954255 -11.584733 -5.290791 -16.438754 -79.512052 8.628538 13.512057 11.467806 2.390783 3.693754 -3.264804 7.688917 21.720731 1.303660 -0.460532 1.145313 -0.404258 2.005712 -7.361721 0.444464 0.000000 -0.000000 0.000000 3.148564 15.277171 0.241607 -0.213870 9.600184 0.262179 5.638492 -8.894414 -1.982576 0.000000 -0.000000 0.000000
43.997291 106.434300 348.351665 -140.961752 -16.340550 0.307252 -2.857942 7.695995 0.198878 -1.270550 3.419176 0.135681 -1.270550 3.419176 0.135681 -0.953390 2.564114 0.108847 3.314497 18.115076 -1.611837 6.632480 -2.380038 -4.064048 10.443439 4.635041 10.887850 3.644591 -12.667672 76.571092 -9.904733 20.485698 -6.415428 1.143268 -0.153027 0.540017 -1.175035 9.020370 -11.502927 -5.259874 -16.510866 -79.714965 8.643373 13.526316 11.500902 2.458527 3.695486 -3.213544 7.687241 21.508673 1.353103 -0.464934 1.243654 -0.438327 2.044313 -7.297650 0.473065 0.000000 0.000000 0.000000 3.229736 15.094936 0.254068 -0.261639 9.617048 0.371279 5.625139 -8.753510 -2.014894 0.000000 0.000000 0.000000
44.102479 106.449101 348.463826 -140.977271 -16.295869 0.264971 -2.854068 7.643342 0.210330 -1.269039 3.395707 0.140372 -1.269040 3.395707 0.140372 -0.952282 2.546502 0.112307 3.307892 18.129162 -1.601850 6.616279 -2.355043 -4.042645 10.366304 4.721284 10.886415 3.678663 -12.686390 76.590708 -9.899139 20.519403 -6.434408 1.131466 -0.153491 0.565880 -1.240208 9.086439 -11.432191 -5.225838 -16.582442 -79.896100 8.668645 13.532592 11.538606 2.519803 3.694708 -3.166628 7.704293 21.326557 1.395236 -0.475979 1.322139 -0.463957 2.077902 -7.228408 0.500119 -0.000000 0.000000 -0.000000 3.292688 14.941277 0.268842 -0.287202 9.640498 0.461882 5.622575 -8.638766 -2.043264 0.000000 -0.000000 0.000000
44.206238 106.463230 348.572604 -141.001086 -16.259152 0.228682 -2.850810 7.595704 0.219412 -1.267758 3.374481 0.144053 -1.267758 3.374481 0.144053 -0.951340 2.530575 0.115016 3.301618 18.145571 -1.593200 6.601006 -2.325620 -4.023670 10.297148 4.805121 10.887884 3.708122 -12.705808 76.603163 -9.885490 20.559123 -6.445922 1.120997 -0.153516 0.589349 -1.298834 9.152731 -11.369117 -5.190703 -16.653188 -80.061644 8.701253 13.534289 11.578881 2.577080 3.692871 -3.123306 7.731323 21.164442 1.432214 -0.489834 1.388312 -0.483808 2.108523 -7.156583 0.525413 0.000000 -0.000000 -0.000000 3.342951 14.806817 0.285168 -0.298440 9.667645 0.539707 5.627211 -8.540930 -2.068933 0.000000 0.000000 0.000000
44.307822 106.476682 348.675953 -141.026933 -16.228378 0.194684 -2.848276 7.550657 0.228867 -1.266801 3.354404 0.147929 -1.266801 3.354404 0.147929 -0.950642 2.515509 0.117876 3.298533 18.166470 -1.585318 6.591614 -2.287611 -4.006881 10.232132 4.889196 10.889568 3.732361 -12.724644 76.613543 -9.872569 20.597200 -6.457811 1.112158 -0.155163 0.607225 -1.354662 9.220207 -11.311021 -5.159503 -16.721359 -80.214586 8.739266 13.537139 11.618222 2.633781 3.693300 -3.084933 7.752120 21.012600 1.465525 -0.497836 1.452493 -0.500003 2.139304 -7.087363 0.546538 0.000000 0.000000 0.000000 3.384362 14.682583 0.301978 -0.304829 9.693574 0.608965 5.635514 -8.449192 -2.093075 0.000000 0.000000 0.000000
